<?xml version="1.0" standalone="no"?>
<!DOCTYPE svg PUBLIC "-//W3C//DTD SVG 20010904//EN"
 "http://www.w3.org/TR/2001/REC-SVG-20010904/DTD/svg10.dtd">
<svg version="1.0" xmlns="http://www.w3.org/2000/svg"
 width="1280.000000pt" height="1600.000000pt" viewBox="0 0 1280.000000 1600.000000"
 preserveAspectRatio="xMidYMid meet">

<g transform="translate(0.000000,1600.000000) scale(0.100000,-0.100000)"
fill="#000000" stroke="none">
<path d="M6245 11044 c-27 -2 -138 -8 -245 -14 -863 -47 -1763 -196 -2475
-409 -390 -116 -663 -221 -982 -376 -389 -189 -649 -363 -887 -595 -222 -216
-345 -412 -418 -665 -19 -69 -23 -103 -23 -245 0 -183 14 -255 78 -407 356
-842 1780 -1512 3752 -1763 554 -71 966 -95 1620 -94 622 0 963 18 1495 80
1337 155 2500 515 3220 997 310 207 551 447 689 685 348 601 102 1248 -669
1759 -834 553 -2153 914 -3760 1029 -208 15 -1250 28 -1395 18z m669 -224
c1133 -36 2111 -219 2956 -553 509 -201 914 -449 1195 -731 380 -382 490 -775
328 -1176 -113 -281 -396 -572 -793 -818 -719 -445 -1817 -738 -3115 -832
-246 -18 -874 -24 -1140 -11 -1253 61 -2330 303 -3154 709 -662 326 -1086 735
-1206 1163 -34 123 -34 330 0 460 28 106 126 294 213 409 479 633 1671 1128
3152 1310 309 37 714 67 1020 73 63 2 142 4 175 5 33 1 199 -3 369 -8z"/>
<path d="M6034 10765 c-136 -29 -266 -111 -356 -224 -192 -240 -359 -714 -413
-1166 -21 -184 -19 -306 15 -860 25 -410 34 -509 56 -608 62 -292 199 -576
356 -739 71 -74 194 -153 259 -167 270 -58 650 99 770 318 l28 53 10 591 c6
326 13 689 16 808 5 182 4 217 -8 222 -18 7 -215 -27 -339 -58 -101 -26 -222
-78 -272 -118 -27 -22 -29 -28 -33 -117 -6 -116 5 -273 21 -295 7 -10 36 -18
83 -23 40 -5 75 -10 77 -13 10 -9 -25 -537 -40 -613 -18 -95 -56 -173 -89
-188 -53 -24 -109 40 -166 186 -28 72 -33 97 -40 231 -12 218 -42 1353 -43
1605 -1 284 25 440 97 589 40 80 69 97 102 59 98 -114 142 -536 90 -868 -23
-148 -21 -186 14 -221 26 -26 36 -29 91 -29 34 0 73 6 89 14 55 29 174 169
224 264 94 179 130 330 129 542 -1 281 -85 506 -252 671 -87 87 -166 131 -275
154 -84 18 -121 18 -201 0z"/>
<path d="M7537 10700 c-79 -25 -192 -95 -251 -155 -161 -166 -305 -498 -390
-901 -74 -354 -78 -559 -23 -1227 40 -474 54 -572 113 -746 91 -274 244 -506
405 -618 98 -67 148 -83 263 -83 311 0 656 230 667 445 2 22 2 383 1 803 l-2
763 -47 -6 c-27 -4 -113 -22 -193 -41 -109 -26 -170 -47 -245 -84 -150 -74
-139 -58 -143 -215 -3 -117 8 -258 21 -272 3 -2 40 -7 83 -11 l78 -7 -4 -165
c-2 -91 -4 -235 -5 -320 -2 -183 -23 -270 -76 -314 -17 -14 -35 -26 -41 -26
-39 0 -145 181 -182 310 -12 42 -23 228 -46 775 -43 1007 -45 1073 -31 1194
23 194 83 374 134 405 45 27 106 -104 143 -305 23 -124 23 -427 1 -598 -13
-106 -14 -130 -2 -157 19 -46 65 -68 124 -59 58 8 96 32 152 92 118 127 204
310 240 513 17 92 16 312 0 400 -59 308 -232 543 -448 610 -85 26 -215 26
-296 0z"/>
<path d="M5080 10624 c-68 -18 -210 -86 -234 -113 -18 -20 -18 -33 -6 -313 23
-535 4 -1388 -40 -1803 -33 -300 -79 -557 -111 -617 -11 -21 -12 -21 -25 3
-27 50 -74 293 -99 524 -47 418 -68 1253 -45 1777 11 266 11 290 -4 314 -35
53 -54 64 -106 64 -163 0 -491 -128 -519 -203 -5 -12 -11 -107 -15 -212 -4
-104 -16 -244 -26 -310 -35 -223 -43 -362 -37 -663 7 -391 39 -642 128 -1017
73 -308 143 -470 268 -621 98 -118 204 -176 326 -178 162 -1 314 123 430 354
80 160 140 393 185 720 5 41 17 244 25 450 9 206 24 566 35 800 11 234 25 557
32 719 l12 294 -30 23 c-33 27 -65 29 -144 8z"/>
<path d="M8464 10509 c-15 -25 2 -539 21 -636 3 -13 7 -34 10 -48 4 -19 12
-25 31 -25 14 0 129 54 256 120 127 67 232 119 235 116 2 -2 -102 -424 -233
-937 -130 -514 -273 -1077 -317 -1253 l-81 -319 12 -79 c13 -90 45 -205 65
-232 13 -18 19 -17 168 22 85 22 345 91 579 152 234 61 429 115 433 119 10 10
49 498 45 551 -2 28 -7 35 -24 34 -11 0 -136 -69 -277 -152 -141 -84 -258
-152 -260 -152 -2 0 43 170 100 378 57 207 138 501 179 652 42 151 125 455
186 675 106 387 110 402 104 475 -6 86 -30 184 -52 219 -67 102 -1135 392
-1180 320z"/>
<path d="M9704 10105 c-3 -8 71 -301 165 -650 94 -350 169 -640 166 -644 -2
-5 -28 -4 -57 1 -64 12 -158 4 -169 -14 -5 -7 -9 -44 -9 -83 0 -141 72 -228
188 -228 31 0 67 5 79 11 15 8 24 9 28 2 4 -6 3 -184 -1 -395 -8 -443 -16
-409 94 -380 176 47 410 196 442 281 6 14 10 105 10 202 0 97 3 220 6 273 l7
97 86 4 c109 6 175 33 195 80 8 17 11 39 8 47 -17 51 -99 95 -199 108 l-60 8
155 344 156 344 -60 56 c-62 58 -193 135 -221 129 -16 -3 -48 -127 -153 -596
-13 -56 -27 -99 -30 -95 -4 4 -15 42 -23 83 -79 376 -160 755 -170 799 -11 49
-16 56 -57 77 -85 44 -265 102 -419 134 -112 24 -150 25 -157 5z"/>
<path d="M3140 10015 c-229 -51 -493 -230 -683 -463 l-57 -69 0 -576 c0 -408
-3 -583 -11 -601 -10 -21 -7 -32 16 -73 146 -248 710 -566 930 -524 110 21
266 145 318 251 50 103 70 201 69 345 0 156 -28 282 -92 413 -46 93 -137 198
-207 238 -49 29 -49 29 13 110 52 68 110 179 127 244 8 30 23 108 32 173 26
175 10 300 -51 398 -73 116 -238 171 -404 134z m-54 -350 c18 -19 43 -61 56
-92 20 -52 23 -74 22 -208 0 -134 -3 -157 -24 -210 -48 -123 -99 -173 -161
-160 l-29 7 0 333 0 334 28 15 c44 24 71 19 108 -19z m-45 -922 c82 -74 132
-217 133 -378 1 -232 -101 -369 -221 -295 l-33 20 0 345 0 345 40 0 c32 0 48
-7 81 -37z"/>
</g>
</svg>
